#!OML:ASF H:\Punching\Project 1\Capture day 1\Session 1\female.ASF
:FULLY-SPECIFIED
:DEGREES
1394
root 1.09911 14.5745 0.797165 13.1923 5.71217 -0.324384
lowerback -4.92224 6.61862 7.51948
upperback -8.1032 8.75005 -1.33711
thorax -4.44545 3.97884 -5.36972
lowerneck -11.9457 0.350106 6.29218
upperneck 41.7638 1.61637 -5.92636
head 17.45 1.05691 -3.53554
rclavicle 3.12092e-014 -1.03368e-014
rhumerus -14.9736 14.9906 -72.0474
rradius 131.689
rwrist -13.3116
rhand -34.7063 15.2836
rfingers 7.12502
rthumb -7.86127 -14.5502
lclavicle 3.12092e-014 -1.03368e-014
lhumerus -16.2661 -16.261 54.6973
lradius 141.292
lwrist 0.818088
lhand -29.1865 4.45874
lfingers 7.12502
lthumb -2.53187 34.4235
rfemur -1.43442 -7.89205 18.9076
rtibia 55.4176
rfoot -7.29409 -18.8743
rtoes -17.3046
lfemur -51.5262 -4.04444 -25.3624
ltibia 48.2855
lfoot -7.35248 3.53166
ltoes 14.5429
1395
root 1.13125 14.6088 0.887039 12.5268 7.06925 0.145632
lowerback -4.59978 6.48746 7.14268
upperback -7.9386 8.60493 -1.2601
thorax -4.52754 3.92752 -5.12362
lowerneck -11.683 -0.0364794 5.94636
upperneck 41.9811 1.12802 -5.83038
head 17.4498 0.831698 -3.51443
rclavicle 2.23633e-015 7.95139e-016
rhumerus -15.3355 14.4312 -71.5718
rradius 131.797
rwrist -13.4636
rhand -34.695 15.1329
rfingers 7.12502
rthumb -7.85035 -14.7013
lclavicle 2.23633e-015 7.95139e-016
lhumerus -16.0698 -16.6835 55.2171
lradius 141.194
lwrist 0.446867
lhand -29.2656 4.3289
lfingers 7.12502
lthumb -2.60822 34.2927
rfemur -3.28565 -8.93597 18.107
rtibia 59.9918
rfoot -7.6501 -15.0012
rtoes -18.972
lfemur -49.815 -4.77953 -26.1752
ltibia 47.3298
lfoot -7.24958 3.10049
ltoes 14.8712
1396
root 1.16075 14.6417 0.971806 11.9064 8.44752 0.601916
lowerback -4.30294 6.34228 6.75872
upperback -7.75653 8.43605 -1.17249
thorax -4.58107 3.86633 -4.8578
lowerneck -11.42 -0.413715 5.60639
upperneck 42.1597 0.65191 -5.74443
head 17.4322 0.60938 -3.49367
rclavicle -9.02979e-014 -4.33351e-014
rhumerus -15.6323 13.8595 -71.0716
rradius 131.903
rwrist -13.6689
rhand -34.7033 15.0354
rfingers 7.12502
rthumb -7.85842 -14.7986
lclavicle -9.02979e-014 -4.33351e-014
lhumerus -15.808 -17.128 55.8166
lradius 141.096
lwrist 0.0735645
lhand -29.3325 4.24799
lfingers 7.12502
lthumb -2.6728 34.211
rfemur -5.34578 -10.1037 17.3142
rtibia 64.7006
rfoot -8.39121 -11.5247
rtoes -20.3918
lfemur -48.138 -5.51081 -26.9623
ltibia 46.3564
lfoot -7.11352 2.68381
ltoes 15.1324
1397
root 1.18697 14.6735 1.05108 11.3251 9.8562 1.00605
lowerback -4.03134 6.16668 6.37842
upperback -7.55063 8.22278 -1.03958
thorax -4.60503 3.78515 -4.54255
lowerneck -11.1737 -0.765852 5.26724
upperneck 42.2962 0.220126 -5.68591
head 17.4023 0.399562 -3.47542
rclavicle -1.60022e-014 -1.86858e-014
rhumerus -15.8329 13.3128 -70.5252
rradius 132.002
rwrist -13.9143
rhand -34.7139 14.9942
rfingers 7.12502
rthumb -7.8686 -14.8394
lclavicle -1.60022e-014 -1.86858e-014
lhumerus -15.5227 -17.5588 56.5084
lradius 141.01
lwrist -0.254588
lhand -29.3508 4.21231
lfingers 7.12502
lthumb -2.69051 34.1751
rfemur -7.59503 -11.3545 16.5978
rtibia 69.4884
rfoot -9.38075 -8.56311
rtoes -21.6495
lfemur -46.5182 -6.22392 -27.6821
ltibia 45.3942
lfoot -6.95435 2.25409
ltoes 15.3605
1398
root 1.20987 14.7041 1.12553 10.7595 11.2924 1.31603
lowerback -3.76537 5.97515 6.05732
upperback -7.3311 7.98651 -0.865786
thorax -4.61019 3.69097 -4.2144
lowerneck -10.9349 -1.10501 4.9271
upperneck 42.4014 -0.19639 -5.62566
head 17.3608 0.194466 -3.45114
rclavicle 4.76089e-014 -1.82882e-014
rhumerus -15.9748 12.7735 -69.9373
rradius 132.102
rwrist -14.1279
rhand -34.7633 14.9236
rfingers 7.12502
rthumb -7.91628 -14.9082
lclavicle 4.76089e-014 -1.82882e-014
lhumerus -15.2086 -18.0278 57.2706
lradius 140.941
lwrist -0.501879
lhand -29.343 4.23189
lfingers 7.12502
lthumb -2.68297 34.1948
rfemur -10.0024 -12.6291 16.017
rtibia 74.2968
rfoot -10.5324 -6.1722
rtoes -22.8774
lfemur -44.9605 -6.91927 -28.2853
ltibia 44.4779
lfoot -6.78918 1.80506
ltoes 15.6061
1399
root 1.22953 14.7336 1.19548 10.1925 12.7407 1.49896
lowerback -3.4986 5.76834 5.8229
upperback -7.09918 7.72948 -0.638021
thorax -4.59933 3.5837 -3.87553
lowerneck -10.711 -1.42453 4.58812
upperneck 42.4784 -0.58515 -5.57072
head 17.3123 -0.00135537 -3.42298
rclavicle 8.84592e-015 -1.59028e-015
rhumerus -16.0554 12.2523 -69.3174
rradius 132.199
rwrist -14.3015
rhand -34.8063 14.8738
rfingers 7.12502
rthumb -7.95785 -14.9564
lclavicle 8.84592e-015 -1.59028e-015
lhumerus -14.8878 -18.5346 58.1016
lradius 140.893
lwrist -0.649007
lhand -29.3435 4.28737
lfingers 7.12502
lthumb -2.68344 34.2502
rfemur -12.5575 -13.8679 15.6132
rtibia 79.0716
rfoot -11.7555 -4.29606
rtoes -24.0249
lfemur -43.4773 -7.58644 -28.7387
ltibia 43.6396
lfoot -6.63597 1.33458
ltoes 15.8748
1400
root 1.24627 14.7621 1.26138 9.6118 14.1876 1.53388
lowerback -3.23871 5.5464 5.69156
upperback -6.8479 7.45191 -0.34754
thorax -4.55975 3.46356 -3.52459
lowerneck -10.5221 -1.71966 4.24592
upperneck 42.5254 -0.939092 -5.52049
head 17.2616 -0.185894 -3.38943
rclavicle -5.17834e-014 -2.22639e-014
rhumerus -16.0521 11.7608 -68.665
rradius 132.292
rwrist -14.4265
rhand -34.8414 14.8065
rfingers 7.12502
rthumb -7.99166 -15.0224
lclavicle -5.17834e-014 -2.22639e-014
lhumerus -14.5571 -19.063 58.9897
lradius 140.87
lwrist -0.681397
lhand -29.345 4.36678
lfingers 7.12502
lthumb -2.68489 34.3296
rfemur -15.2533 -15.0329 15.4092
rtibia 83.7598
rfoot -12.9772 -2.84602
rtoes -25.0283
lfemur -42.0819 -8.23095 -29.0196
ltibia 42.9042
lfoot -6.50751 0.85794
ltoes 16.1809
1401
root 1.26045 14.7898 1.32423 8.9961 15.6073 1.41845
lowerback -2.97535 5.33056 5.68052
upperback -6.59159 7.18341 -0.0156517
thorax -4.50515 3.34346 -3.19462
lowerneck -10.3374 -2.00328 3.92308
upperneck 42.5564 -1.28411 -5.46895
head 17.2058 -0.364357 -3.35611
rclavicle -1.71949e-014 -2.38542e-015
rhumerus -16.014 11.2493 -67.9963
rradius 132.371
rwrist -14.5099
rhand -34.8464 14.8095
rfingers 7.12502
rthumb -7.99653 -15.0193
lclavicle -1.71949e-014 -2.38542e-015
lhumerus -14.2118 -19.6681 59.9076
lradius 140.869
lwrist -0.613747
lhand -29.3517 4.45153
lfingers 7.12502
lthumb -2.69141 34.4143
rfemur -18.0695 -16.0899 15.4006
rtibia 88.3127
rfoot -14.1897 -1.76205
rtoes -25.9396
lfemur -40.7629 -8.87117 -29.12
ltibia 42.2801
lfoot -6.41698 0.410582
ltoes 16.5184
1402
root 1.27276 14.8169 1.38455 8.34798 16.9804 1.1766
lowerback -2.71866 5.11368 5.76163
upperback -6.32665 6.91406 0.356445
thorax -4.43071 3.22027 -2.87091
lowerneck -10.1665 -2.26592 3.61816
upperneck 42.5687 -1.60199 -5.42521
head 17.1472 -0.53099 -3.3243
rclavicle 3.42904e-014 6.36111e-015
rhumerus -15.9269 10.753 -67.3355
rradius 132.44
rwrist -14.5547
rhand -34.8262 14.8482
rfingers 7.12502
rthumb -7.97706 -14.9812
lclavicle 3.42904e-014 6.36111e-015
lhumerus -13.8613 -20.3096 60.8414
lradius 140.881
lwrist -0.484252
lhand -29.3717 4.5033
lfingers 7.12502
lthumb -2.71071 34.4658
rfemur -21.0049 -17.0366 15.5498
rtibia 92.6728
rfoot -15.2955 -0.93955
rtoes -26.6351
lfemur -39.4851 -9.50827 -29.0712
ltibia 41.6824
lfoot -6.32654 0.006099
ltoes 16.8251
1403
root 1.28361 14.8433 1.44286 7.67465 18.2934 0.850195
lowerback -2.48227 4.89306 5.88672
upperback -6.0472 6.63882 0.762738
thorax -4.32762 3.09412 -2.53228
lowerneck -10.0114 -2.50433 3.32825
upperneck 42.5607 -1.88337 -5.39751
head 17.0854 -0.683553 -3.29592
rclavicle 5.91384e-014 2.14687e-014
rhumerus -15.7711 10.2848 -66.6876
rradius 132.488
rwrist -14.5813
rhand -34.7815 14.9252
rfingers 7.12502
rthumb -7.93385 -14.9059
lclavicle 5.91384e-014 2.14687e-014
lhumerus -13.5057 -20.9557 61.7779
lradius 140.898
lwrist -0.333656
lhand -29.3764 4.51542
lfingers 7.12502
lthumb -2.71525 34.4779
rfemur -24.0562 -17.885 15.8023
rtibia 96.8358
rfoot -16.2859 -0.322022
rtoes -27.0864
lfemur -38.2684 -10.1477 -28.9216
ltibia 41.164
lfoot -6.273 -0.343614
ltoes 17.0812
1404
root 1.29548 14.8873 1.50078 6.98758 19.5276 0.485099
lowerback -2.26093 4.68737 6.03088
upperback -5.77039 6.38247 1.16608
thorax -4.21323 2.97689 -2.20494
lowerneck -9.83249 -2.73378 3.06934
upperneck 42.5379 -2.15998 -5.3707
head 17.0104 -0.829917 -3.27092
rclavicle 6.64935e-014 1.74931e-014
rhumerus -15.6104 9.81469 -66.0866
rradius 132.525
rwrist -14.5832
rhand -34.7307 15.0308
rfingers 7.12502
rthumb -7.88489 -14.8022
lclavicle 6.64935e-014 1.74931e-014
lhumerus -13.1272 -21.6473 62.6894
lradius 140.897
lwrist -0.223306
lhand -29.3727 4.47691
lfingers 7.12502
lthumb -2.71168 34.4394
rfemur -27.1659 -18.6461 16.1025
rtibia 100.672
rfoot -17.0781 0.132401
rtoes -27.3807
lfemur -37.0211 -10.7901 -28.7156
ltibia 40.6477
lfoot -6.27653 -0.625991
ltoes 17.2645
1405
root 1.3041 14.9111 1.55583 6.29625 20.6751 0.125227
lowerback -2.05065 4.49945 6.15594
upperback -5.50356 6.1487 1.5493
thorax -4.09932 2.87116 -1.88669
lowerneck -9.60805 -2.95516 2.85145
upperneck 42.5063 -2.43251 -5.34905
head 16.9196 -0.968925 -3.25263
rclavicle 5.91384e-014 -7.95139e-016
rhumerus -15.4729 9.35305 -65.5524
rradius 132.558
rwrist -14.5571
rhand -34.6929 15.105
rfingers 7.12502
rthumb -7.84839 -14.7293
lclavicle 5.91384e-014 -7.95139e-016
lhumerus -12.7372 -22.3773 63.5607
lradius 140.875
lwrist -0.177608
lhand -29.2948 4.40076
lfingers 7.12502
lthumb -2.63638 34.3642
rfemur -30.452 -19.3334 16.4106
rtibia 104.39
rfoot -17.7739 0.427759
rtoes -27.4823
lfemur -35.8876 -11.4468 -28.5094
ltibia 40.2282
lfoot -6.28134 -0.829336
ltoes 17.3753
